<?xml version="1.0" encoding="utf-8"?>
<!-- Generator: Adobe Illustrator 19.2.1, SVG Export Plug-In . SVG Version: 6.00 Build 0)  -->
<svg version="1.1" id="layer" xmlns="http://www.w3.org/2000/svg" xmlns:xlink="http://www.w3.org/1999/xlink" x="0px" y="0px"
	 viewBox="0 0 652 652" style="enable-background:new 0 0 652 652;" xml:space="preserve">
<g>
	<path d="M237.6,276.3c-104-2.8-182.4,12.5-185.9,38.2c-1.8,13.2,45,35.8,73.4,40.9c-25.3,5-59.2,7.7-101.6,7.6l-2.8,2.1
		c114.1,6,193.2-3.8,196.6-31.4c2.2-17.9-58-38.5-58-38.5l-2.5,0.6c0,0,22.8,10.8,22.8,24.9c0,15-17,26.6-50.3,33.8
		c-22.2-8-35.2-17.8-35-28.4c0.4-24.7,51.6-44,141.8-46.6L237.6,276.3z"/>
	<path d="M261.4,348.4c3.1,0,6.4-2.5,7.4-5.6l2-6.1h20.8l-9.1,27.8h-65l29-88.6h65l-7.7,23.5H283l0.3-0.9c1-3.1-0.7-5.6-3.7-5.6H270
		l-0.1,0c-3.1,0-6.3,2.6-7.3,5.6l-14.5,44.4c-1,2.9,0.7,5.6,3.8,5.6H261.4z"/>
</g>
<polygon points="313.4,276.1 336.7,276.1 341.6,304.9 362.7,276.1 387,276.1 346.1,331.7 335.7,364.6 313,364.6 322.9,331.7 "/>
<g>
	<path d="M506.4,347.8h-34.7c0,0-6.8-0.3-4.8-6.6l4.2-12.8h37.2l5.4-16.5h-37.3c0,0,2.2-6.6,4.5-13.6c2.2-6.8,8.9-6.1,8.9-6.1h30.3
		l5.4-16.5H465l-29,88.6h65L506.4,347.8z M550.8,337.1c-0.6,0-0.9,0.7-1.6,1.7l-17.3,25.6h-27.1l30.6-44.6l-3.3-44l23.8,0l1.7,24
		c0,0.4,0,1.1,0.3,1.1c0.2,0,0.3-0.4,0.7-0.8l17.1-24.3l27.5,0l-30.2,41.1l4.3,47.5h-23.5l-2.5-25.4
		C551.3,337.7,551.2,337.1,550.8,337.1 M406.1,347.7c3,0,7.8-2.2,9.2-5.4l1.6-4.7c1.9-5.9,4.1-10.1-4.5-10.1h-15.6l-6.7,20.3
		L406.1,347.7z M438,275.8c11.8,0,15.7,8.3,12.6,17.8l-5,14.5c-3.1,8.4-12.4,10.4-12.4,10.4c11.2,2,7,12.4,7,12.4
		c-1.2,4.3-1.9,6.7-3.3,10.9c-1.9,5.9-3.4,10.7-5.2,15c-1.7,4.1-7.4,7.5-15,7.5l-55.7,0l29-88.6L438,275.8z M419.7,292.3l-11.4,0
		l-6.3,19.3h11c8.3,0.3,11.9-3.2,13.8-9.1l1.7-4.8c1-3-0.1-5.4-2.4-5.4H419.7z"/>
	<path d="M613.3,282.4c1.1,0,2-0.1,2.4-1.3c0.3-1-0.5-1.2-1.4-1.2h-1.7l-0.8,2.6H613.3z M610.3,287.1h-1.2l2.7-8.3h3.1
		c1.9,0,2.7,0.7,2.1,2.3c-0.5,1.5-1.6,2.1-2.9,2.3l1.2,3.6h-1.4l-1-3.6h-1.4L610.3,287.1z M611.2,288.9c3.2,0,6.6-2.5,7.8-6
		c1.1-3.4-0.6-5.9-3.8-5.9c-3.3,0-6.7,2.6-7.8,5.9C606.2,286.4,608,288.9,611.2,288.9 M605.9,282.9c1.3-4.1,5.7-7.1,9.6-7.1
		c3.9,0,6.2,3,4.9,7.1c-1.4,4.2-5.7,7.2-9.6,7.2C606.9,290.1,604.6,287.1,605.9,282.9"/>
</g>
</svg>
